<?xml version="1.0" encoding="UTF-8"?><svg xmlns="http://www.w3.org/2000/svg" xmlns:xlink="http://www.w3.org/1999/xlink" version="1.1" id="Layer_1" x="0px" y="0px" viewBox="0 0 24 24" xml:space="preserve"><path fill="#039BE5" d="M12 0C5.383 0 0 5.383 0 12s5.383 12 12 12 12-5.383 12-12S18.617 0 12 0z"/><path opacity="0.2" fill="#FFF" d="M12 .25C18.575.25 23.932 5.441 24 12c0-.042 0 .042 0 0 0-6.617-5.383-12-12-12S0 5.383 0 12c0 .042 0-.042 0 0C.068 5.441 5.425.25 12 .25z"/><path opacity="0.1" d="M12 23.75C5.727 23.75.562 19.024.042 12.893.017 12.598.003 12.3 0 12c0 .042 0-.042 0 0 0 .274.01.546.027.816C.448 19.054 5.657 24 12 24c6.149 0 11.233-4.65 11.92-10.617A12.074 12.074 0 0 0 24 12c-.004.434-.032.862-.082 1.283-.7 5.94-5.778 10.467-11.918 10.467z"/><path fill="#FFF" d="M19 12l-6-5v3H5v4h8v3z"/><linearGradient id="SVGID_1_" gradientUnits="userSpaceOnUse" x1="9.5821047" y1="10.5774565" x2="18.2725792" y2="19.267931"><stop offset="0" stop-color="#000" stop-opacity="0.1"/><stop offset="1" stop-color="#000" stop-opacity="0"/></linearGradient><path fill="url(#SVGID_1_)" d="M19 12l-6 5v-3H5l9.69 9.697c3.936-.905 7.135-3.763 8.54-7.483L19 12z"/><linearGradient id="SVGID_2_" gradientUnits="userSpaceOnUse" x1="1.1249185" y1="6.9288664" x2="22.875082" y2="17.0711346"><stop offset="0" stop-color="#FFF" stop-opacity="0.2"/><stop offset="1" stop-color="#FFF" stop-opacity="0"/></linearGradient><path fill="url(#SVGID_2_)" d="M12 0C5.383 0 0 5.383 0 12s5.383 12 12 12 12-5.383 12-12S18.617 0 12 0z"/><metadata><rdf:RDF xmlns:rdf="http://www.w3.org/1999/02/22-rdf-syntax-ns#" xmlns:rdfs="http://www.w3.org/2000/01/rdf-schema#" xmlns:dc="http://purl.org/dc/elements/1.1/"><rdf:Description about="https://iconscout.com/legal#licenses" dc:title="arrow,point,direction,move,navigation" dc:description="arrow,point,direction,move,navigation" dc:publisher="Iconscout" dc:date="2017-11-13" dc:format="image/svg+xml" dc:language="en"><dc:creator><rdf:Bag><rdf:li>Those Icons</rdf:li></rdf:Bag></dc:creator></rdf:Description></rdf:RDF></metadata></svg>