<svg fill="#000000" xmlns="http://www.w3.org/2000/svg" viewBox="0 0 26 26" width="512px" height="512px"><path d="M 7 0 C 4.800781 0 3 1.800781 3 4 L 3 22 C 3 24.199219 4.800781 26 7 26 L 19 26 C 21.199219 26 23 24.199219 23 22 L 23 8 C 23 6.898438 22.011719 5.886719 20.3125 4.1875 C 20.011719 3.988281 19.800781 3.699219 19.5 3.5 C 19.300781 3.199219 19.011719 2.988281 18.8125 2.6875 C 17.113281 0.988281 16.101563 0 15 0 Z M 7 2 L 14.3125 2 C 15.011719 2.199219 15 3.101563 15 4 L 15 7 C 15 7.601563 15.398438 8 16 8 L 19 8 C 20 8 21 8 21 9 L 21 22 C 21 23.101563 20.101563 24 19 24 L 7 24 C 5.898438 24 5 23.101563 5 22 L 5 4 C 5 2.898438 5.898438 2 7 2 Z M 10.25 8.65625 C 10.207031 8.664063 10.164063 8.675781 10.125 8.6875 C 9.839844 8.78125 9.777344 8.898438 9.71875 8.96875 C 9.660156 9.039063 9.625 9.105469 9.59375 9.15625 C 9.53125 9.257813 9.484375 9.328125 9.4375 9.4375 C 9.339844 9.652344 9.242188 9.925781 9.125 10.25 C 8.890625 10.894531 8.597656 11.757813 8.3125 12.6875 C 8.101563 13.371094 7.910156 14.078125 7.71875 14.78125 C 7.472656 15 7.375 15.339844 7.46875 15.65625 C 7.246094 16.53125 7.070313 17.351563 6.96875 17.96875 C 6.863281 18.285156 6.953125 18.636719 7.199219 18.863281 C 7.445313 19.089844 7.804688 19.152344 8.113281 19.019531 C 8.417969 18.886719 8.621094 18.585938 8.625 18.25 C 8.707031 17.753906 8.890625 17.015625 9.09375 16.21875 L 11.75 16.09375 C 11.921875 16.753906 12.058594 17.382813 12.15625 17.9375 C 12.234375 18.402344 12.675781 18.71875 13.140625 18.640625 C 13.605469 18.5625 13.921875 18.121094 13.84375 17.65625 C 13.425781 15.261719 12.398438 11.847656 11.15625 9.15625 C 11.003906 8.804688 10.628906 8.597656 10.25 8.65625 Z M 10.375 11.84375 C 10.691406 12.691406 10.984375 13.558594 11.25 14.40625 L 9.5625 14.5 C 9.6875 14.058594 9.808594 13.613281 9.9375 13.1875 C 10.097656 12.667969 10.226563 12.285156 10.375 11.84375 Z M 16.71875 12.03125 C 16.289063 12.128906 16.007813 12.535156 16.0625 12.96875 L 16.1875 14.28125 L 14.96875 14.34375 C 14.492188 14.359375 14.125 14.757813 14.140625 15.234375 C 14.15625 15.710938 14.554688 16.078125 15.03125 16.0625 L 16.375 16 L 16.46875 17.09375 C 16.488281 17.40625 16.675781 17.683594 16.960938 17.816406 C 17.25 17.949219 17.582031 17.910156 17.832031 17.71875 C 18.082031 17.527344 18.207031 17.214844 18.15625 16.90625 L 18.0625 15.90625 L 19.03125 15.84375 C 19.359375 15.871094 19.667969 15.707031 19.835938 15.421875 C 20 15.140625 19.984375 14.785156 19.800781 14.515625 C 19.617188 14.246094 19.292969 14.105469 18.96875 14.15625 L 17.875 14.21875 L 17.75 12.8125 C 17.734375 12.582031 17.625 12.371094 17.445313 12.222656 C 17.269531 12.078125 17.042969 12.007813 16.8125 12.03125 C 16.78125 12.03125 16.75 12.03125 16.71875 12.03125 Z"/></svg>