<svg fill="#000000" xmlns="http://www.w3.org/2000/svg" viewBox="0 0 30 30" width="512px" height="512px"><path d="M 7.8671875 4 C 6.8792418 4 6.0274565 4.7395617 5.8867188 5.7167969 L 4.0097656 18.859375 A 1.0001 1.0001 0 0 0 4 19 L 4 24 C 4 25.093063 4.9069372 26 6 26 L 24 26 C 25.093063 26 26 25.093063 26 24 L 26 19 A 1.0001 1.0001 0 0 0 25.990234 18.859375 L 24.111328 5.71875 L 24.111328 5.7167969 C 23.971587 4.7390631 23.120167 4 22.132812 4 L 7.8671875 4 z M 7.8671875 6 L 22.132812 6 L 23.990234 19 L 17.816406 19 C 17.403406 20.163 16.304 21 15 21 C 13.696 21 12.596594 20.163 12.183594 19 L 6.0097656 19 L 7.8671875 6.0019531 L 7.8671875 6 z"/></svg>