<svg fill="#000000" xmlns="http://www.w3.org/2000/svg" viewBox="0 0 24 24" width="512px" height="512px"><path d="M 6 2 C 4.9057453 2 4 2.9057453 4 4 L 4 20 C 4 21.094255 4.9057453 22 6 22 L 18 22 C 19.094255 22 20 21.094255 20 20 L 20 8 L 14 2 L 6 2 z M 6 4 L 13 4 L 13 9 L 18 9 L 18 20 L 6 20 L 6 4 z M 9.2695312 11 L 7 17 L 8.0859375 17 L 8.5722656 15.603516 L 10.898438 15.603516 L 11.388672 17 L 12.478516 17 L 10.205078 11 L 9.2695312 11 z M 14.5 12 L 14.5 13.5 L 13 13.5 L 13 14.5 L 14.5 14.5 L 14.5 16 L 15.5 16 L 15.5 14.5 L 17 14.5 L 17 13.5 L 15.5 13.5 L 15.5 12 L 14.5 12 z M 9.7363281 12.273438 L 10.605469 14.761719 L 8.8652344 14.761719 L 9.7363281 12.273438 z"/></svg>