<?xml version="1.0"?><svg fill="#000000" xmlns="http://www.w3.org/2000/svg" viewBox="0 0 30 30" width="512px" height="512px">    <path d="M 7 2 C 5.895 2 5 2.895 5 4 L 5 26 C 5 27.105 5.895 28 7 28 L 23 28 C 24.105 28 25 27.105 25 26 L 25 9.5 C 25 9.235 24.895031 8.9809688 24.707031 8.7929688 L 18.207031 2.2929688 C 18.019031 2.1049688 17.765 2 17.5 2 L 7 2 z M 17 3.9042969 L 23.095703 10 L 18 10 C 17.448 10 17 9.552 17 9 L 17 3.9042969 z M 12 12 C 12.761 12 13.801563 12.000203 15.976562 21.783203 C 16.095562 22.322203 15.755797 22.855563 15.216797 22.976562 C 14.679797 23.092562 14.143437 22.756797 14.023438 22.216797 C 13.934437 21.817797 13.839188 21.41 13.742188 21 L 10.257812 21 C 10.160813 21.41 10.065563 21.817797 9.9765625 22.216797 C 9.8735625 22.682797 9.4599531 23 9.0019531 23 C 8.9299531 23 8.8562031 22.991563 8.7832031 22.976562 C 8.2442031 22.856562 7.9044375 22.322203 8.0234375 21.783203 C 10.198438 11.999203 11.239 12 12 12 z M 20 14 C 20.553 14 21 14.447 21 15 L 21 16 L 22 16 C 22.553 16 23 16.447 23 17 C 23 17.553 22.553 18 22 18 L 21 18 L 21 19 C 21 19.553 20.553 20 20 20 C 19.447 20 19 19.553 19 19 L 19 18 L 18 18 C 17.447 18 17 17.553 17 17 C 17 16.447 17.447 16 18 16 L 19 16 L 19 15 C 19 14.447 19.447 14 20 14 z M 12 14.855469 C 11.634 15.833469 11.185859 17.355 10.755859 19 L 13.244141 19 C 12.814141 17.355 12.366 15.833469 12 14.855469 z"/></svg>